<?xml version="1.0" encoding="utf-8"?>
<!-- Generator: Adobe Illustrator 16.0.0, SVG Export Plug-In . SVG Version: 6.00 Build 0)  -->
<!DOCTYPE svg PUBLIC "-//W3C//DTD SVG 1.1//EN" "http://www.w3.org/Graphics/SVG/1.1/DTD/svg11.dtd">
<svg version="1.1" xmlns="http://www.w3.org/2000/svg" xmlns:xlink="http://www.w3.org/1999/xlink" x="0px" y="0px" width="128px"
	 height="128px" viewBox="0 0 128 128" enable-background="new 0 0 128 128" xml:space="preserve">
<g id="Layer_1">
</g>
<g id="Layer_3">
</g>
<g id="Layer_2">
	<circle fill="#FACACC" cx="64" cy="64.5" r="63.5"/>
	<path fill="#EAB0B6" d="M90.139,31.146l-3.354,3.883L36.225,96.508l-1.164,1.475l30.277,29.984
		c33.266-0.69,60.244-26.946,62.059-59.926L90.139,31.146z"/>
	<rect x="38.203" y="31.023" fill="#BC762A" width="51.592" height="24.152"/>
	<polygon fill="#CE8933" points="46.307,36.975 38.203,31.023 38.203,52.643 44.539,40.863 	"/>
	<polygon fill="#E2A048" points="35.787,42.377 46.307,36.975 46.307,59.504 	"/>
	<polygon fill="#CE8933" points="81.691,36.975 89.795,31.023 89.795,52.643 83.459,40.863 	"/>
	<polygon fill="#E2A048" points="92.213,42.377 81.691,36.975 81.691,59.504 	"/>
	<polygon fill="#F3B459" points="93.213,97.977 34.787,97.977 35.787,42.377 92.213,42.377 	"/>
	<circle fill="#1B3035" cx="50.715" cy="48.801" r="1.289"/>
	<circle fill="#1B3035" cx="77.283" cy="48.801" r="1.289"/>
	<circle fill="#1B3035" cx="52.772" cy="35.883" r="1.089"/>
	<circle fill="#1B3035" cx="75.227" cy="35.883" r="1.09"/>
	<path fill="#FFFFFF" d="M70.682,76.238c-1.658,0-3.234-0.285-4.621-0.611l-0.334-0.076c-2.824-0.658-5.49-1.281-7.283-3.885
		c-1.59-2.311-2.617-5.127-2.893-7.934l-0.094-1.002c-0.264-2.809-0.49-5.234-1.602-7.873c-0.531-1.262-1.061-2.523-1.711-3.621
		c-0.387-0.65-0.824-1.057-1.33-1.525c-0.246-0.227-0.5-0.463-0.758-0.734c-0.191-0.199-0.184-0.516,0.018-0.707
		c0.199-0.189,0.516-0.184,0.707,0.018c0.242,0.256,0.48,0.477,0.711,0.689c0.541,0.502,1.053,0.975,1.512,1.75
		c0.686,1.158,1.23,2.449,1.756,3.699c1.188,2.824,1.434,5.439,1.691,8.211l0.096,0.998c0.258,2.641,1.225,5.291,2.721,7.465
		c1.572,2.285,3.941,2.836,6.688,3.477l0.334,0.078c4.283,1.004,7.391,0.705,10.078-0.973c2.266-1.418,3.408-3.48,3.596-6.494
		c0.186-2.967-0.58-5.738-1.393-8.672c-0.508-1.836-1.031-3.734-1.291-5.664c-0.047-0.355-0.148-0.762-0.254-1.193
		c-0.223-0.904-0.453-1.842-0.307-2.666c0.049-0.271,0.316-0.445,0.58-0.404c0.271,0.049,0.453,0.309,0.404,0.58
		c-0.109,0.617,0.096,1.447,0.293,2.25c0.113,0.459,0.219,0.893,0.273,1.301c0.25,1.863,0.766,3.727,1.266,5.531
		c0.797,2.883,1.621,5.865,1.426,9c-0.209,3.363-1.5,5.676-4.064,7.279C74.836,75.816,72.699,76.238,70.682,76.238z"/>
</g>
</svg>
